<?xml version="1.0" standalone="no"?>
<!DOCTYPE svg PUBLIC "-//W3C//DTD SVG 20010904//EN"
 "http://www.w3.org/TR/2001/REC-SVG-20010904/DTD/svg10.dtd">
<svg version="1.0" xmlns="http://www.w3.org/2000/svg"
 width="300.000000pt" height="145.000000pt" viewBox="0 0 300.000000 145.000000"
 preserveAspectRatio="xMidYMid meet">
<metadata>
Created by potrace 1.10, written by Peter Selinger 2001-2011
</metadata>
<g transform="translate(0.000000,145.000000) scale(0.100000,-0.100000)"
fill="#FFFFFF" stroke="none">
<path d="M1080 1333 c-14 -9 -44 -33 -68 -54 l-42 -37 -78 31 c-69 28 -90 31
-207 35 -151 4 -241 -11 -338 -57 -131 -63 -216 -174 -203 -266 8 -61 29 -98
73 -132 33 -25 45 -28 113 -28 68 0 80 3 113 28 54 41 99 137 64 137 -7 0 -19
-15 -25 -34 -7 -19 -31 -50 -52 -70 -35 -32 -46 -36 -93 -36 -65 0 -113 27
-133 76 -51 122 118 296 330 341 148 31 430 -26 391 -80 -58 -79 -140 -213
-220 -357 -83 -150 -138 -237 -198 -311 -11 -15 -21 -13 -101 26 -153 75 -250
83 -307 25 -56 -55 -46 -122 24 -168 35 -24 51 -27 116 -26 82 0 126 11 208
51 l52 26 58 -22 c233 -89 500 -58 621 73 103 111 119 321 36 484 -38 76 -101
156 -150 191 -19 13 -34 30 -34 38 0 8 23 38 50 67 28 29 50 56 50 59 0 12
-25 7 -50 -10z m56 -348 c136 -276 28 -526 -245 -565 -104 -15 -257 7 -334 46
l-28 15 52 57 c57 62 183 251 325 485 l89 148 53 -58 c29 -31 69 -89 88 -128z
m-855 -431 c30 -9 81 -30 114 -46 55 -28 58 -31 40 -44 -32 -23 -143 -54 -195
-54 -42 0 -52 4 -79 35 -38 44 -39 59 -2 96 34 33 47 35 122 13z"/>
<path d="M2432 1150 c-24 -3 -47 -11 -50 -16 -42 -57 -100 -157 -193 -331
-127 -236 -175 -312 -222 -346 -46 -34 -96 -62 -101 -56 -6 5 81 250 116 329
14 30 35 64 47 74 33 29 26 34 -31 21 l-52 -11 -56 -102 c-63 -116 -140 -225
-176 -248 -32 -22 -54 -11 -54 24 0 58 92 249 154 320 22 25 26 34 13 29 -10
-4 -36 -10 -58 -13 -43 -7 -53 -21 -153 -207 -50 -93 -116 -172 -138 -164 -23
8 -10 63 48 192 30 69 52 130 48 136 -5 8 -33 10 -86 6 l-78 -5 31 35 c47 55
55 77 35 108 -32 49 -54 32 -80 -65 -27 -103 -84 -239 -133 -318 -24 -40 -43
-78 -41 -84 7 -21 68 72 124 190 47 97 57 112 78 112 13 0 33 -8 44 -17 l21
-18 -44 -95 c-48 -101 -55 -151 -29 -188 32 -46 113 -11 167 73 l19 30 -5 -37
c-11 -79 61 -114 134 -65 19 12 58 60 88 105 30 45 56 80 58 78 2 -2 -18 -59
-45 -127 -56 -140 -36 -123 -197 -166 -38 -10 -105 -36 -150 -58 -69 -35 -83
-46 -103 -85 -29 -58 -28 -91 4 -121 22 -20 35 -24 87 -23 112 1 192 59 310
224 44 63 64 81 122 113 87 47 96 56 152 142 73 110 76 103 13 -26 -29 -59
-22 -81 22 -77 32 3 33 5 39 58 3 31 14 72 23 92 52 109 231 240 252 184 15
-40 -10 -62 -136 -120 -58 -27 -58 -139 0 -198 46 -46 123 -33 185 32 34 35
45 38 45 10 0 -30 36 -60 71 -60 24 0 42 12 85 55 30 31 54 60 54 65 0 6 3 10
8 10 4 0 6 -18 4 -40 -9 -87 55 -118 122 -59 36 31 96 121 115 172 20 52 -6
26 -67 -68 -89 -135 -127 -148 -103 -35 12 56 50 138 88 188 l25 33 -47 -3
-47 -3 -60 -95 c-115 -184 -211 -246 -193 -127 11 76 93 198 179 266 47 38 75
39 106 6 25 -26 45 -21 34 9 -9 24 -57 46 -99 46 -39 0 -115 -35 -162 -74 -17
-14 -56 -75 -88 -136 -78 -150 -137 -201 -195 -170 -31 17 -53 114 -32 147 4
6 28 21 54 32 25 11 65 36 88 57 38 35 41 40 38 83 -3 42 -5 46 -31 49 -43 5
-132 -42 -197 -104 -33 -32 -62 -55 -65 -52 -12 12 193 352 267 441 21 26 36
46 31 46 -4 -1 -28 -5 -51 -9z m-682 -833 c0 -18 -199 -212 -237 -231 -41 -21
-82 -20 -105 1 -23 21 -23 35 2 83 26 50 82 83 213 126 116 37 127 39 127 21z"/>
</g>
</svg>
