<?xml version="1.0" standalone="no"?>
<!DOCTYPE svg PUBLIC "-//W3C//DTD SVG 20010904//EN"
 "http://www.w3.org/TR/2001/REC-SVG-20010904/DTD/svg10.dtd">
<svg version="1.0" xmlns="http://www.w3.org/2000/svg"
 width="300.000000pt" height="149.000000pt" viewBox="0 0 300.000000 149.000000"
 preserveAspectRatio="xMidYMid meet">
<metadata>
Created by potrace 1.10, written by Peter Selinger 2001-2011
</metadata>
<g transform="translate(0.000000,149.000000) scale(0.100000,-0.100000)"
fill="#000000" stroke="none">
<path d="M891 1304 l-51 -46 -48 20 c-79 34 -130 43 -230 43 -167 -1 -305 -52
-386 -142 -49 -55 -62 -94 -53 -161 19 -145 227 -182 302 -53 28 48 32 75 10
75 -8 0 -15 -8 -15 -17 0 -28 -43 -82 -79 -99 -23 -11 -46 -14 -73 -10 -134
22 -138 155 -8 274 36 34 135 80 199 93 78 16 213 6 281 -21 73 -28 78 -35 53
-62 -34 -37 -106 -155 -174 -283 -64 -122 -122 -215 -168 -271 l-26 -31 -77
39 c-99 49 -162 63 -217 48 -81 -22 -108 -107 -50 -161 17 -15 46 -31 66 -35
81 -15 201 11 264 57 12 9 29 6 80 -14 95 -38 225 -53 318 -37 96 16 185 62
228 118 78 102 85 282 15 418 -30 58 -96 140 -132 160 -16 10 -30 24 -30 30 0
7 22 35 49 63 45 46 47 51 26 51 -13 0 -44 -19 -74 -46z m95 -269 c103 -210
48 -405 -135 -477 -79 -30 -210 -30 -308 0 -77 24 -96 39 -69 54 10 5 44 46
77 89 52 71 92 133 266 417 l45 74 45 -44 c24 -23 60 -74 79 -113z m-680 -401
c46 -20 84 -40 84 -44 0 -15 -105 -52 -161 -57 -54 -5 -60 -4 -88 25 -36 36
-38 50 -10 86 29 36 72 34 175 -10z"/>
<path d="M2078 1169 c-22 -12 -100 -146 -203 -345 -97 -188 -131 -235 -197
-274 -29 -16 -56 -30 -59 -30 -4 0 20 73 52 162 39 106 68 172 86 191 l28 30
-34 -7 c-18 -3 -40 -6 -47 -6 -8 0 -30 -32 -50 -72 -104 -207 -214 -317 -214
-215 0 41 90 229 128 270 l27 29 -40 -7 c-22 -4 -45 -8 -52 -10 -6 -2 -39 -57
-72 -122 -68 -133 -113 -193 -143 -193 -18 0 -20 4 -15 37 4 21 27 80 52 131
63 131 63 134 -27 125 l-73 -6 33 37 c17 20 32 47 32 59 0 50 -55 66 -66 20
-26 -120 -83 -264 -132 -336 -18 -25 -32 -51 -32 -57 0 -40 79 80 120 182 21
53 34 74 49 76 24 4 61 -14 61 -30 0 -6 -18 -46 -40 -90 -43 -87 -49 -121 -24
-156 32 -46 90 -23 147 58 l17 25 -5 -32 c-8 -39 21 -73 61 -73 54 0 86 31
171 166 23 37 12 -2 -30 -105 l-42 -104 -95 -23 c-110 -28 -216 -78 -243 -115
-10 -14 -21 -44 -24 -66 -5 -35 -2 -43 22 -61 53 -42 161 -20 239 49 25 22 70
77 100 123 49 73 61 84 109 104 63 26 101 64 151 147 44 73 46 68 6 -17 -40
-84 -39 -98 5 -98 33 0 35 2 35 33 0 71 27 130 87 189 69 68 128 97 150 75 12
-12 13 -19 3 -36 -14 -28 -68 -61 -98 -61 -33 0 -64 -55 -58 -103 13 -112 112
-141 197 -56 29 29 39 35 39 21 0 -33 29 -62 62 -62 23 0 41 11 72 43 22 23
47 51 53 62 11 17 12 15 7 -18 -8 -50 15 -87 55 -87 37 0 89 52 131 132 45 84
32 94 -17 12 -44 -74 -85 -124 -103 -124 -16 0 -12 65 9 119 10 27 32 70 49
95 l31 46 -39 0 c-39 0 -40 -1 -85 -79 -60 -103 -119 -171 -151 -171 -21 0
-24 5 -24 37 0 55 46 139 116 210 50 51 68 63 93 63 20 0 35 -7 43 -20 16 -25
28 -26 28 0 0 23 -47 50 -88 50 -43 0 -128 -47 -162 -90 -17 -21 -46 -71 -65
-112 -38 -81 -57 -107 -97 -133 -53 -33 -102 17 -96 98 3 40 5 43 46 56 24 7
61 30 83 51 31 29 39 44 39 73 0 26 -5 37 -19 42 -47 15 -138 -31 -200 -101
-23 -26 -41 -43 -41 -38 0 36 176 332 233 392 l31 32 -35 0 c-18 0 -42 -5 -51
-11z m-558 -718 c0 -15 -148 -168 -183 -190 -52 -31 -92 -36 -116 -12 -17 17
-18 25 -10 48 23 65 68 96 192 134 101 31 117 33 117 20z"/>
<path d="M2847 92 l-108 -3 3 -32 3 -32 110 0 110 0 3 29 c2 16 0 31 -5 35 -4
3 -57 5 -116 3z m3 -30 c0 -9 -14 -12 -45 -11 -59 3 -59 25 0 24 30 0 45 -4
45 -13z m93 9 c4 0 7 -5 7 -11 0 -5 -13 -10 -30 -10 -19 0 -30 5 -30 14 0 12
15 14 53 7z"/>
</g>
</svg>
